<?xml version="1.0" standalone="no"?>
<!DOCTYPE svg PUBLIC "-//W3C//DTD SVG 20010904//EN"
 "http://www.w3.org/TR/2001/REC-SVG-20010904/DTD/svg10.dtd">
<svg version="1.0" xmlns="http://www.w3.org/2000/svg"
 width="2000.000000pt" height="500.000000pt" viewBox="0 0 2000.000000 500.000000"
 preserveAspectRatio="xMidYMid meet">

<g transform="translate(0.000000,500.000000) scale(0.100000,-0.100000)"
fill="#000000" stroke="none">
<path d="M622 4118 c-18 -18 -17 -1861 1 -1876 14 -12 762 -17 791 -6 14 5 16
74 16 636 0 458 3 642 12 670 18 61 92 136 168 172 56 25 80 30 168 34 94 4
110 2 180 -24 90 -33 171 -104 192 -169 7 -22 17 -46 23 -52 11 -15 114 -17
305 -6 141 7 140 7 117 98 -56 220 -226 386 -482 474 -99 33 -195 44 -343 38
-117 -4 -149 -9 -230 -37 -106 -35 -204 -85 -267 -136 -23 -19 -46 -34 -52
-34 -7 0 -11 36 -11 105 0 93 -2 105 -19 115 -29 15 -553 14 -569 -2z m338
-733 c0 -7 22 -43 50 -80 58 -79 68 -116 45 -171 -40 -98 -146 -122 -214 -50
-52 56 -46 136 17 209 20 23 46 61 56 85 15 33 22 40 33 31 7 -6 13 -17 13
-24z m4 -732 c4 -16 29 -58 57 -96 63 -83 71 -125 39 -191 -36 -75 -124 -115
-183 -85 -66 34 -96 99 -78 167 6 20 31 62 56 92 25 30 53 74 63 97 20 49 38
55 46 16z"/>
<path d="M3640 4124 c-183 -27 -271 -53 -393 -117 -252 -133 -395 -376 -428
-723 -30 -327 59 -631 240 -814 180 -182 411 -260 774 -260 310 0 545 48 694
142 106 67 162 150 183 271 11 59 10 71 -7 104 -27 57 -48 63 -216 63 -191 0
-222 -8 -300 -79 -114 -103 -260 -145 -432 -123 -153 20 -244 78 -300 189 -32
65 -58 192 -43 210 8 10 146 13 650 13 704 0 685 -2 707 61 23 66 8 298 -29
442 -105 406 -446 631 -950 626 -69 -1 -136 -3 -150 -5z m320 -396 c52 -17 76
-32 122 -78 47 -48 60 -68 77 -126 12 -38 22 -91 24 -119 l2 -50 -388 -3
c-343 -2 -388 0 -393 13 -9 22 14 131 37 184 77 176 293 251 519 179z"/>
<path d="M8035 4124 c-16 -2 -66 -9 -109 -15 -107 -14 -273 -70 -349 -116
-133 -83 -209 -194 -227 -334 -14 -116 7 -231 58 -314 104 -168 302 -263 804
-384 114 -27 242 -65 284 -83 93 -40 119 -70 118 -134 -2 -82 -78 -131 -238
-153 -214 -30 -365 4 -484 110 -89 79 -124 89 -316 89 -212 0 -235 -16 -224
-155 14 -165 124 -282 335 -354 129 -44 257 -62 503 -68 588 -15 910 120 992
416 46 168 2 328 -126 457 -127 126 -271 185 -703 288 -127 31 -260 67 -296
81 -114 46 -156 109 -120 182 38 78 137 114 308 115 112 1 205 -16 270 -49 16
-9 54 -38 82 -65 79 -73 103 -81 284 -86 236 -7 266 10 257 141 -16 225 -183
355 -533 413 -86 15 -502 28 -570 18z"/>
<path d="M10240 4124 c-133 -20 -188 -32 -269 -61 -288 -101 -476 -326 -536
-639 -48 -254 -20 -538 73 -738 122 -259 343 -412 667 -461 178 -27 516 -14
690 25 279 62 431 200 443 400 4 70 2 78 -21 106 l-25 29 -154 3 c-202 5 -238
-3 -319 -74 -83 -73 -138 -100 -244 -120 -73 -15 -101 -16 -180 -6 -212 24
-316 120 -354 327 -8 42 -8 62 0 72 9 11 128 13 656 13 716 0 680 -3 704 67
13 39 6 225 -12 343 -15 95 -64 235 -111 315 -49 83 -180 216 -260 263 -166
98 -362 144 -608 141 -63 -1 -126 -3 -140 -5z m285 -386 c108 -27 188 -97 225
-195 22 -59 40 -160 33 -180 -4 -10 -87 -13 -389 -13 -438 0 -405 -8 -386 92
24 130 86 219 185 268 96 47 217 57 332 28z"/>
<path d="M12665 4115 c-109 -24 -202 -74 -314 -170 -62 -53 -71 -49 -71 33 0
46 -4 58 -29 83 l-29 29 -226 0 -226 0 -32 -29 -33 -29 0 -862 0 -862 33 -29
32 -29 226 0 226 0 29 29 29 29 0 585 0 585 54 69 c125 156 263 212 410 168
87 -26 138 -83 180 -200 6 -19 12 -238 16 -618 l5 -589 33 -29 32 -29 226 0
226 0 29 29 29 30 0 581 c-1 665 -12 591 102 702 81 79 174 129 251 136 80 6
161 -21 212 -73 93 -93 105 -189 105 -858 l0 -489 29 -29 29 -29 222 0 c133 0
229 4 241 10 49 27 49 31 49 617 0 677 -7 742 -103 928 -76 147 -203 248 -372
297 -108 30 -328 33 -420 5 -129 -40 -294 -140 -403 -246 -48 -46 -66 -51 -82
-22 -17 33 -89 112 -138 153 -137 114 -381 166 -577 123z"/>
<path d="M15905 4124 c-16 -2 -70 -9 -120 -15 -261 -32 -453 -132 -522 -271
-27 -55 -47 -157 -39 -201 3 -19 18 -45 32 -58 25 -23 30 -24 197 -24 203 0
222 5 306 80 69 61 77 66 145 89 121 41 292 38 390 -7 90 -41 140 -130 140
-252 l1 -70 -360 -6 c-319 -5 -371 -8 -458 -28 -170 -38 -268 -84 -362 -172
-118 -111 -168 -224 -168 -384 -1 -246 128 -426 376 -524 108 -43 205 -61 358
-68 239 -10 409 29 592 135 66 38 87 36 87 -8 0 -21 9 -41 29 -61 l29 -29 202
0 202 0 29 30 30 29 -3 623 c-3 561 -5 629 -21 683 -78 262 -274 429 -576 491
-73 15 -442 28 -516 18z m535 -1133 c13 -25 13 -216 0 -241 -35 -65 -340 -170
-494 -170 -60 0 -150 26 -196 56 -140 93 -105 297 60 354 49 17 87 19 337 20
269 0 283 -1 293 -19z"/>
<path d="M18425 4121 c-109 -18 -185 -44 -303 -103 -132 -66 -142 -66 -142 -6
0 17 -11 35 -31 52 -30 26 -31 26 -219 26 -125 0 -198 -4 -215 -12 -58 -26
-55 30 -55 -1192 0 -691 4 -1134 10 -1150 5 -14 21 -33 37 -43 24 -16 52 -18
243 -18 161 0 221 3 238 13 47 27 52 62 52 336 0 140 4 257 9 260 5 3 37 -3
72 -15 104 -33 281 -59 402 -59 557 0 883 324 904 895 20 538 -200 895 -617
1001 -65 17 -314 26 -385 15z m186 -420 c102 -39 174 -138 206 -282 23 -106
22 -386 -1 -494 -58 -268 -245 -360 -593 -291 -72 14 -143 31 -157 37 l-26 12
2 450 3 450 95 51 c137 73 224 97 330 92 54 -2 106 -12 141 -25z"/>
<path d="M5128 4061 l-33 -29 -3 -519 c-2 -300 2 -560 7 -618 18 -172 57 -288
135 -404 134 -197 367 -294 665 -278 174 9 279 47 440 157 48 33 92 60 98 60
6 0 13 -28 16 -62 6 -53 12 -67 37 -90 l30 -28 226 0 226 0 29 29 29 29 0 862
0 862 -29 29 -29 29 -225 0 c-211 0 -226 -1 -250 -20 -15 -12 -31 -38 -37 -58
-6 -23 -10 -245 -10 -598 l0 -562 -57 -53 c-192 -175 -394 -231 -550 -153 -71
35 -114 90 -145 182 -22 66 -23 80 -28 632 -5 605 -5 601 -56 620 -14 6 -122
10 -239 10 l-215 0 -32 -29z"/>
<path d="M1949 1464 c-60 -18 -120 -83 -144 -154 -15 -45 -16 -61 -6 -105 14
-62 64 -125 125 -158 l41 -22 8050 0 8050 0 52 29 c155 86 158 303 6 393 l-48
28 -8040 2 c-6927 1 -8046 0 -8086 -13z"/>
</g>
</svg>
